<svg width="32" height="31" viewBox="0 0 32 31" fill="none" xmlns="http://www.w3.org/2000/svg">
<g filter="url(#filter0_d_1_1674)">
<path d="M6 16.25C6.69036 16.25 7.25 15.6904 7.25 15C7.25 14.3096 6.69036 13.75 6 13.75C5.30964 13.75 4.75 14.3096 4.75 15C4.75 15.6904 5.30964 16.25 6 16.25Z" fill="black"/>
<path d="M26.075 13.75H10.925C10.2761 13.75 9.75 14.2761 9.75 14.925V15.075C9.75 15.7239 10.2761 16.25 10.925 16.25H26.075C26.7239 16.25 27.25 15.7239 27.25 15.075V14.925C27.25 14.2761 26.7239 13.75 26.075 13.75Z" fill="black"/>
<path d="M26.075 20H5.925C5.27607 20 4.75 20.5261 4.75 21.175V21.325C4.75 21.9739 5.27607 22.5 5.925 22.5H26.075C26.7239 22.5 27.25 21.9739 27.25 21.325V21.175C27.25 20.5261 26.7239 20 26.075 20Z" fill="black"/>
<path d="M26.075 7.5H5.925C5.27607 7.5 4.75 8.02607 4.75 8.675V8.825C4.75 9.47393 5.27607 10 5.925 10H26.075C26.7239 10 27.25 9.47393 27.25 8.825V8.675C27.25 8.02607 26.7239 7.5 26.075 7.5Z" fill="black"/>
</g>
<defs>
<filter id="filter0_d_1_1674" x="-3" y="0" width="38" height="38" filterUnits="userSpaceOnUse" color-interpolation-filters="sRGB">
<feFlood flood-opacity="0" result="BackgroundImageFix"/>
<feColorMatrix in="SourceAlpha" type="matrix" values="0 0 0 0 0 0 0 0 0 0 0 0 0 0 0 0 0 0 127 0" result="hardAlpha"/>
<feOffset dy="4"/>
<feGaussianBlur stdDeviation="2"/>
<feComposite in2="hardAlpha" operator="out"/>
<feColorMatrix type="matrix" values="0 0 0 0 0 0 0 0 0 0 0 0 0 0 0 0 0 0 0.25 0"/>
<feBlend mode="normal" in2="BackgroundImageFix" result="effect1_dropShadow_1_1674"/>
<feBlend mode="normal" in="SourceGraphic" in2="effect1_dropShadow_1_1674" result="shape"/>
</filter>
</defs>
</svg>
